<svg xmlns="http://www.w3.org/2000/svg" viewBox="0 0 100 100" width="100" height="100">
  <circle cx="50" cy="50" r="48" fill="#4caf50"/>
  <path d="M56.172,23.828c-3.125-3.125-8.188-3.125-11.313,0l-20,20c-3.125,3.125-3.125,8.188,0,11.313l20,20c1.563,1.563,3.609,2.344,5.656,2.344c2.047,0,4.094-0.781,5.656-2.344c3.125-3.125,3.125-8.188,0-11.313L40.313,50l15.859-15.859C59.297,32.016,59.297,26.953,56.172,23.828z M49.164,70.082c-0.672,0.672-1.563,1.039-2.52,1.039s-1.848-0.367-2.52-1.039c-1.387-1.387-1.387-3.641,0-5.027L59.355,50L44.124,34.77c-1.387-1.387-1.387-3.641,0-5.027c1.387-1.387,3.641-1.387,5.027,0L65.6,44.715c1.387,1.387,2.051,3.199,1.758,5.055s-1.387,3.641-2.773,5.027L54.191,67.274C52.805,68.66,50.551,68.66,49.164,70.082z" fill="#ffffff"/>
</svg>
