<svg xmlns="http://www.w3.org/2000/svg" viewBox="0 0 100 100" width="100" height="100">
  <circle cx="50" cy="50" r="48" fill="#4caf50"/>
  <circle cx="50" cy="50" r="40" fill="#ffffff"/>
  <path d="M60,35h-20c-5.523,0-10,4.477-10,10v20c0,5.523,4.477,10,10,10h20c5.523,0,10-4.477,10-10v-20C70,39.477,65.523,35,60,35z M58,55h-4v4h-4v-4h-4v-4h4v-4h4v4h4V55z" fill="#4caf50"/>
  <path d="M57.414,48l3.293-3.293L57.414,41L54.121,44.293L50.828,41L49.414,42.414L52.707,45.707L49.414,49L50.828,50.414L54.121,47.121L57.414,50.414L58.828,49L55.535,45.707L58.828,42.414L57.414,41L54.121,44.293L57.414,48z" fill="#ffffff"/>
  <circle cx="50" cy="50" r="10" fill="#ffffff"/>
</svg>
