<svg xmlns="http://www.w3.org/2000/svg" viewBox="0 0 100 100" width="100" height="100">
  <path d="M73.271,53.893c-1.322-2.273-3.725-3.603-6.271-3.893H32c-2.546,0.29-4.949,1.62-6.271,3.893c-1.153,1.993-1.197,4.399-0.146,6.445L36,85.552V93c0,1.104,0.896,2,2,2h24c1.104,0,2-0.896,2-2v-7.448l10.417-21.661C74.468,58.292,74.424,55.886,73.271,53.893z" fill="#4caf50"/>
  <path d="M57.34,45.543c-1.687-1.666-4.012-2.33-6.34-1.772v-8.17c2.92-0.752,5.515-2.734,7.034-5.476C59.625,26.331,59.635,23.092,58.062,20h-9.593c-0.484-1.989-1.847-3.597-3.754-4.41c-1.884-0.797-4.006-0.725-5.836,0.208c-1.78,0.912-3.003,2.642-3.375,4.745H23.326c-1.636,0-2.967,1.331-2.967,2.967v49.126c0,1.636,1.331,2.967,2.967,2.967h53.348c1.636,0,2.967-1.331,2.967-2.967V48.808C60.261,47.141,59.028,46.209,57.34,45.543z M23.326,45.809h21.396v5.039H23.326V45.809z M38.178,59.186c0.943-1.514,1.5-3.268,1.5-5.138c0-4.136-3.364-7.5-7.5-7.5c-4.136,0-7.5,3.364-7.5,7.5c0,1.87,0.556,3.624,1.5,5.138V59.186L38.178,59.186z M58.694,61.17c-1.675,3.462-5.246,5.819-9.389,5.819c-0.049,0-0.1-0.001-0.15-0.002c-0.049,0.001-0.099,0.002-0.149,0.002c-4.142,0-7.712-2.357-9.389-5.819l-0.013-0.025L24.167,79.376V50.676h51.654V79.376L58.694,61.17z" fill="#ffffff"/>
  <path d="M60.706,52.714c-0.175-0.121-0.371-0.177-0.573-0.177H35.867c-0.202,0-0.398,0.056-0.573,0.177c-0.748,0.517-0.937,1.528-0.42,2.276c0.09,0.131,0.197,0.249,0.32,0.351v7.71c0,0.258,0.209,0.467,0.467,0.467h24.527c0.258,0,0.467-0.209,0.467-0.467v-7.71c0.123-0.102,0.23-0.22,0.32-0.351C61.643,54.242,61.454,53.231,60.706,52.714z M60.24,60.772c0,0.081-0.066,0.147-0.147,0.147H35.907c-0.081,0-0.147-0.066-0.147-0.147v-7.71c0-0.081,0.066-0.147,0.147-0.147h24.186c0.081,0,0.147,0.066,0.147,0.147V60.772z" fill="#ffffff"/>
  <circle cx="65.568" cy="20" r="12" fill="#ffffff"/>
  <circle cx="65.568" cy="20" r="8" fill="#4caf50"/>
</svg>
