<svg xmlns="http://www.w3.org/2000/svg" viewBox="0 0 100 100" width="100" height="100">
  <circle cx="50" cy="50" r="48" fill="#4caf50"/>
  <path d="M50,20c-22.091,0-40,17.909-40,40s17.909,40,40,40s40-17.909,40-40S72.091,20,50,20z M50,85c-19.299,0-35-15.701-35-35s15.701-35,35-35s35,15.701,35,35S69.299,85,50,85z" fill="#ffffff"/>
  <path d="M50,30c-11.579,0-21,9.421-21,21s9.421,21,21,21s21-9.421,21-21S61.579,30,50,30z M50,65c-9.925,0-18-8.075-18-18s8.075-18,18-18s18,8.075,18,18S59.925,65,50,65z" fill="#ffffff"/>
  <path d="M38,36h24c1.105,0,2,0.895,2,2v24c0,1.105-0.895,2-2,2H38c-1.105,0-2-0.895-2-2V38C36,36.895,36.895,36,38,36z M60,62V38H40v24H60z" fill="#ffffff"/>
</svg>
